<svg width="50" height="50" viewBox="0 0 50 50" fill="none" xmlns="http://www.w3.org/2000/svg">
<path d="M25 25C22.7083 25 20.7465 24.1841 19.1146 22.5521C17.4826 20.9202 16.6666 18.9584 16.6666 16.6667C16.6666 14.375 17.4826 12.4132 19.1146 10.7813C20.7465 9.14935 22.7083 8.33337 25 8.33337C27.2916 8.33337 29.2535 9.14935 30.8854 10.7813C32.5173 12.4132 33.3333 14.375 33.3333 16.6667C33.3333 18.9584 32.5173 20.9202 30.8854 22.5521C29.2535 24.1841 27.2916 25 25 25ZM8.33331 41.6667V35.8334C8.33331 34.6528 8.63748 33.5674 9.24581 32.5771C9.85415 31.5868 10.6611 30.832 11.6666 30.3125C13.8194 29.2362 16.0069 28.4285 18.2291 27.8896C20.4514 27.3507 22.7083 27.082 25 27.0834C27.2916 27.0834 29.5486 27.3528 31.7708 27.8917C33.993 28.4306 36.1805 29.2375 38.3333 30.3125C39.3403 30.8334 40.1479 31.5889 40.7562 32.5792C41.3646 33.5695 41.668 34.6542 41.6666 35.8334V41.6667H8.33331Z" fill="black"/>
</svg>
