<svg width="50" height="58" viewBox="0 0 50 58" fill="none" xmlns="http://www.w3.org/2000/svg">
<g clip-path="url(#clip0_34_9)">
<path d="M28.9904 57.8574V41.5509C28.9904 30.141 38.3173 20.9181 49.8077 20.9181V37.2722C49.8077 48.6345 40.4807 57.8574 28.9904 57.8574Z" fill="#3A86FF"/>
<path d="M23.6539 47.018V23.3902C23.6539 10.6967 13.2692 0.427856 0.480774 0.427856V24.0557C0.480774 36.7492 10.8654 47.018 23.6539 47.018Z" fill="#3A86FF"/>
<path d="M44.7596 10.2213C44.7596 14.5475 41.2019 18.018 36.875 18.018C32.5 18.018 28.9904 14.5475 28.9904 10.2213C28.9904 5.94259 32.5 2.42456 36.875 2.42456C41.2019 2.42456 44.7596 5.94259 44.7596 10.2213Z" fill="#3A86FF"/>
</g>
<defs>
<clipPath id="clip0_34_9">
<rect width="50" height="58" fill="white"/>
</clipPath>
</defs>
</svg>
